<?xml version="1.0" encoding="UTF-8" standalone="no"?>
<svg width="800" height="600" viewBox="0 0 800 600" fill="none" xmlns="http://www.w3.org/2000/svg">
  <!-- Sky background -->
  <rect width="800" height="600" fill="#87CEEB"/>
  
  <!-- Ground -->
  <rect y="500" width="800" height="100" fill="#808080"/>
  
  <!-- Main Mall Building -->
  <rect x="100" y="200" width="600" height="300" fill="#F5F5F5"/>
  
  <!-- Roof -->
  <rect x="80" y="180" width="640" height="20" fill="#4682B4"/>
  
  <!-- Main Entrance -->
  <rect x="350" y="400" width="100" height="100" fill="#4682B4"/>
  <rect x="370" y="420" width="60" height="80" fill="#ADD8E6"/>
  <line x1="400" y1="420" x2="400" y2="500" stroke="#FFFFFF" stroke-width="2"/>
  
  <!-- Side Entrances -->
  <rect x="100" y="400" width="60" height="60" fill="#4682B4"/>
  <rect x="110" y="410" width="40" height="50" fill="#ADD8E6"/>
  
  <rect x="640" y="400" width="60" height="60" fill="#4682B4"/>
  <rect x="650" y="410" width="40" height="50" fill="#ADD8E6"/>
  
  <!-- Windows -->
  <!-- Left Section -->
  <rect x="130" y="250" width="40" height="40" fill="#ADD8E6"/>
  <rect x="190" y="250" width="40" height="40" fill="#ADD8E6"/>
  <rect x="250" y="250" width="40" height="40" fill="#ADD8E6"/>
  
  <rect x="130" y="310" width="40" height="40" fill="#ADD8E6"/>
  <rect x="190" y="310" width="40" height="40" fill="#ADD8E6"/>
  <rect x="250" y="310" width="40" height="40" fill="#ADD8E6"/>
  
  <!-- Right Section -->
  <rect x="510" y="250" width="40" height="40" fill="#ADD8E6"/>
  <rect x="570" y="250" width="40" height="40" fill="#ADD8E6"/>
  <rect x="630" y="250" width="40" height="40" fill="#ADD8E6"/>
  
  <rect x="510" y="310" width="40" height="40" fill="#ADD8E6"/>
  <rect x="570" y="310" width="40" height="40" fill="#ADD8E6"/>
  <rect x="630" y="310" width="40" height="40" fill="#ADD8E6"/>
  
  <!-- Mall Sign -->
  <rect x="300" y="150" width="200" height="50" fill="#FF4500"/>
  <text x="330" y="185" font-family="Arial" font-size="30" font-weight="bold" fill="#FFFFFF">SHOPPING MALL</text>
  
  <!-- Parking Lot -->
  <rect x="100" y="520" width="600" height="60" fill="#696969"/>
  
  <!-- Parking Spaces -->
  <rect x="120" y="530" width="20" height="40" fill="#FFFFFF" stroke="#000000" stroke-width="1"/>
  <rect x="150" y="530" width="20" height="40" fill="#FFFFFF" stroke="#000000" stroke-width="1"/>
  <rect x="180" y="530" width="20" height="40" fill="#FFFFFF" stroke="#000000" stroke-width="1"/>
  <rect x="210" y="530" width="20" height="40" fill="#FFFFFF" stroke="#000000" stroke-width="1"/>
  <rect x="240" y="530" width="20" height="40" fill="#FFFFFF" stroke="#000000" stroke-width="1"/>
  <rect x="270" y="530" width="20" height="40" fill="#FFFFFF" stroke="#000000" stroke-width="1"/>
  <rect x="300" y="530" width="20" height="40" fill="#FFFFFF" stroke="#000000" stroke-width="1"/>
  <rect x="330" y="530" width="20" height="40" fill="#FFFFFF" stroke="#000000" stroke-width="1"/>
  <rect x="360" y="530" width="20" height="40" fill="#FFFFFF" stroke="#000000" stroke-width="1"/>
  <rect x="390" y="530" width="20" height="40" fill="#FFFFFF" stroke="#000000" stroke-width="1"/>
  <rect x="420" y="530" width="20" height="40" fill="#FFFFFF" stroke="#000000" stroke-width="1"/>
  <rect x="450" y="530" width="20" height="40" fill="#FFFFFF" stroke="#000000" stroke-width="1"/>
  <rect x="480" y="530" width="20" height="40" fill="#FFFFFF" stroke="#000000" stroke-width="1"/>
  <rect x="510" y="530" width="20" height="40" fill="#FFFFFF" stroke="#000000" stroke-width="1"/>
  <rect x="540" y="530" width="20" height="40" fill="#FFFFFF" stroke="#000000" stroke-width="1"/>
  <rect x="570" y="530" width="20" height="40" fill="#FFFFFF" stroke="#000000" stroke-width="1"/>
  <rect x="600" y="530" width="20" height="40" fill="#FFFFFF" stroke="#000000" stroke-width="1"/>
  <rect x="630" y="530" width="20" height="40" fill="#FFFFFF" stroke="#000000" stroke-width="1"/>
  <rect x="660" y="530" width="20" height="40" fill="#FFFFFF" stroke="#000000" stroke-width="1"/>
  
  <!-- Cars -->
  <rect x="125" y="540" width="10" height="20" fill="#FF0000"/>
  <circle cx="127" cy="560" r="3" fill="#000000"/>
  <circle cx="133" cy="560" r="3" fill="#000000"/>
  
  <rect x="215" y="540" width="10" height="20" fill="#0000FF"/>
  <circle cx="217" cy="560" r="3" fill="#000000"/>
  <circle cx="223" cy="560" r="3" fill="#000000"/>
  
  <rect x="305" y="540" width="10" height="20" fill="#008000"/>
  <circle cx="307" cy="560" r="3" fill="#000000"/>
  <circle cx="313" cy="560" r="3" fill="#000000"/>
  
  <rect x="395" y="540" width="10" height="20" fill="#FFFF00"/>
  <circle cx="397" cy="560" r="3" fill="#000000"/>
  <circle cx="403" cy="560" r="3" fill="#000000"/>
  
  <rect x="485" y="540" width="10" height="20" fill="#800080"/>
  <circle cx="487" cy="560" r="3" fill="#000000"/>
  <circle cx="493" cy="560" r="3" fill="#000000"/>
  
  <rect x="575" y="540" width="10" height="20" fill="#FFA500"/>
  <circle cx="577" cy="560" r="3" fill="#000000"/>
  <circle cx="583" cy="560" r="3" fill="#000000"/>
  
  <rect x="665" y="540" width="10" height="20" fill="#000000"/>
  <circle cx="667" cy="560" r="3" fill="#FFFFFF"/>
  <circle cx="673" cy="560" r="3" fill="#FFFFFF"/>
  
  <!-- Trees -->
  <rect x="50" y="450" width="10" height="50" fill="#8B4513"/>
  <circle cx="55" cy="430" r="20" fill="#228B22"/>
  
  <rect x="740" y="450" width="10" height="50" fill="#8B4513"/>
  <circle cx="745" cy="430" r="20" fill="#228B22"/>
  
  <!-- Decorative Elements -->
  <!-- Fountain -->
  <circle cx="400" cy="350" width="40" height="40" r="30" fill="#ADD8E6"/>
  <circle cx="400" cy="350" width="30" height="30" r="20" fill="#87CEEB"/>
  <circle cx="400" cy="350" width="20" height="20" r="10" fill="#FFFFFF"/>
  
  <!-- Benches -->
  <rect x="330" y="350" width="20" height="5" fill="#A0522D"/>
  <rect x="332" y="355" width="2" height="10" fill="#A0522D"/>
  <rect x="346" y="355" width="2" height="10" fill="#A0522D"/>
  
  <rect x="450" y="350" width="20" height="5" fill="#A0522D"/>
  <rect x="452" y="355" width="2" height="10" fill="#A0522D"/>
  <rect x="466" y="355" width="2" height="10" fill="#A0522D"/>
  
  <!-- Sun -->
  <circle cx="700" cy="100" r="40" fill="#FFD700"/>
  <line x1="700" y1="40" x2="700" y2="20" stroke="#FFD700" stroke-width="3"/>
  <line x1="700" y1="160" x2="700" y2="180" stroke="#FFD700" stroke-width="3"/>
  <line x1="640" y1="100" x2="620" y2="100" stroke="#FFD700" stroke-width="3"/>
  <line x1="760" y1="100" x2="780" y2="100" stroke="#FFD700" stroke-width="3"/>
  <line x1="660" y1="60" x2="645" y2="45" stroke="#FFD700" stroke-width="3"/>
  <line x1="740" y1="140" x2="755" y2="155" stroke="#FFD700" stroke-width="3"/>
  <line x1="660" y1="140" x2="645" y2="155" stroke="#FFD700" stroke-width="3"/>
  <line x1="740" y1="60" x2="755" y2="45" stroke="#FFD700" stroke-width="3"/>
</svg>
