<?xml version="1.0" encoding="UTF-8" standalone="no"?>
<svg width="800" height="600" viewBox="0 0 800 600" fill="none" xmlns="http://www.w3.org/2000/svg">
  <!-- Sky background -->
  <rect width="800" height="600" fill="#87CEEB"/>
  
  <!-- Ground -->
  <rect y="500" width="800" height="100" fill="#808080"/>
  
  <!-- Main Office Building -->
  <rect x="200" y="100" width="400" height="400" fill="#A9A9A9"/>
  
  <!-- Windows - Main Building -->
  <!-- Row 1 -->
  <rect x="230" y="130" width="40" height="40" fill="#ADD8E6"/>
  <rect x="290" y="130" width="40" height="40" fill="#ADD8E6"/>
  <rect x="350" y="130" width="40" height="40" fill="#ADD8E6"/>
  <rect x="410" y="130" width="40" height="40" fill="#ADD8E6"/>
  <rect x="470" y="130" width="40" height="40" fill="#ADD8E6"/>
  
  <!-- Row 2 -->
  <rect x="230" y="190" width="40" height="40" fill="#ADD8E6"/>
  <rect x="290" y="190" width="40" height="40" fill="#ADD8E6"/>
  <rect x="350" y="190" width="40" height="40" fill="#ADD8E6"/>
  <rect x="410" y="190" width="40" height="40" fill="#ADD8E6"/>
  <rect x="470" y="190" width="40" height="40" fill="#ADD8E6"/>
  
  <!-- Row 3 -->
  <rect x="230" y="250" width="40" height="40" fill="#ADD8E6"/>
  <rect x="290" y="250" width="40" height="40" fill="#ADD8E6"/>
  <rect x="350" y="250" width="40" height="40" fill="#ADD8E6"/>
  <rect x="410" y="250" width="40" height="40" fill="#ADD8E6"/>
  <rect x="470" y="250" width="40" height="40" fill="#ADD8E6"/>
  
  <!-- Row 4 -->
  <rect x="230" y="310" width="40" height="40" fill="#ADD8E6"/>
  <rect x="290" y="310" width="40" height="40" fill="#ADD8E6"/>
  <rect x="350" y="310" width="40" height="40" fill="#ADD8E6"/>
  <rect x="410" y="310" width="40" height="40" fill="#ADD8E6"/>
  <rect x="470" y="310" width="40" height="40" fill="#ADD8E6"/>
  
  <!-- Row 5 -->
  <rect x="230" y="370" width="40" height="40" fill="#ADD8E6"/>
  <rect x="290" y="370" width="40" height="40" fill="#ADD8E6"/>
  <rect x="350" y="370" width="40" height="40" fill="#ADD8E6"/>
  <rect x="410" y="370" width="40" height="40" fill="#ADD8E6"/>
  <rect x="470" y="370" width="40" height="40" fill="#ADD8E6"/>
  
  <!-- Entrance -->
  <rect x="350" y="430" width="100" height="70" fill="#4682B4"/>
  <rect x="380" y="450" width="40" height="50" fill="#FFFFFF"/>
  
  <!-- Secondary Office Building -->
  <rect x="50" y="200" width="120" height="300" fill="#D3D3D3"/>
  
  <!-- Windows - Secondary Building -->
  <!-- Row 1 -->
  <rect x="70" y="220" width="30" height="30" fill="#ADD8E6"/>
  <rect x="120" y="220" width="30" height="30" fill="#ADD8E6"/>
  
  <!-- Row 2 -->
  <rect x="70" y="270" width="30" height="30" fill="#ADD8E6"/>
  <rect x="120" y="270" width="30" height="30" fill="#ADD8E6"/>
  
  <!-- Row 3 -->
  <rect x="70" y="320" width="30" height="30" fill="#ADD8E6"/>
  <rect x="120" y="320" width="30" height="30" fill="#ADD8E6"/>
  
  <!-- Row 4 -->
  <rect x="70" y="370" width="30" height="30" fill="#ADD8E6"/>
  <rect x="120" y="370" width="30" height="30" fill="#ADD8E6"/>
  
  <!-- Row 5 -->
  <rect x="70" y="420" width="30" height="30" fill="#ADD8E6"/>
  <rect x="120" y="420" width="30" height="30" fill="#ADD8E6"/>
  
  <!-- Tertiary Office Building -->
  <rect x="630" y="200" width="120" height="300" fill="#D3D3D3"/>
  
  <!-- Windows - Tertiary Building -->
  <!-- Row 1 -->
  <rect x="650" y="220" width="30" height="30" fill="#ADD8E6"/>
  <rect x="700" y="220" width="30" height="30" fill="#ADD8E6"/>
  
  <!-- Row 2 -->
  <rect x="650" y="270" width="30" height="30" fill="#ADD8E6"/>
  <rect x="700" y="270" width="30" height="30" fill="#ADD8E6"/>
  
  <!-- Row 3 -->
  <rect x="650" y="320" width="30" height="30" fill="#ADD8E6"/>
  <rect x="700" y="320" width="30" height="30" fill="#ADD8E6"/>
  
  <!-- Row 4 -->
  <rect x="650" y="370" width="30" height="30" fill="#ADD8E6"/>
  <rect x="700" y="370" width="30" height="30" fill="#ADD8E6"/>
  
  <!-- Row 5 -->
  <rect x="650" y="420" width="30" height="30" fill="#ADD8E6"/>
  <rect x="700" y="420" width="30" height="30" fill="#ADD8E6"/>
  
  <!-- Connecting Bridges -->
  <rect x="170" y="250" width="30" height="20" fill="#4682B4"/>
  <rect x="600" y="250" width="30" height="20" fill="#4682B4"/>
  <rect x="170" y="350" width="30" height="20" fill="#4682B4"/>
  <rect x="600" y="350" width="30" height="20" fill="#4682B4"/>
  
  <!-- Parking Lot -->
  <rect x="200" y="520" width="400" height="60" fill="#696969"/>
  <rect x="220" y="530" width="30" height="40" fill="#FFFFFF" stroke="#000000" stroke-width="1"/>
  <rect x="270" y="530" width="30" height="40" fill="#FFFFFF" stroke="#000000" stroke-width="1"/>
  <rect x="320" y="530" width="30" height="40" fill="#FFFFFF" stroke="#000000" stroke-width="1"/>
  <rect x="370" y="530" width="30" height="40" fill="#FFFFFF" stroke="#000000" stroke-width="1"/>
  <rect x="420" y="530" width="30" height="40" fill="#FFFFFF" stroke="#000000" stroke-width="1"/>
  <rect x="470" y="530" width="30" height="40" fill="#FFFFFF" stroke="#000000" stroke-width="1"/>
  <rect x="520" y="530" width="30" height="40" fill="#FFFFFF" stroke="#000000" stroke-width="1"/>
  
  <!-- Cars -->
  <rect x="225" y="540" width="20" height="10" fill="#FF0000"/>
  <circle cx="230" cy="550" r="3" fill="#000000"/>
  <circle cx="240" cy="550" r="3" fill="#000000"/>
  
  <rect x="325" y="540" width="20" height="10" fill="#0000FF"/>
  <circle cx="330" cy="550" r="3" fill="#000000"/>
  <circle cx="340" cy="550" r="3" fill="#000000"/>
  
  <rect x="425" y="540" width="20" height="10" fill="#008000"/>
  <circle cx="430" cy="550" r="3" fill="#000000"/>
  <circle cx="440" cy="550" r="3" fill="#000000"/>
  
  <rect x="525" y="540" width="20" height="10" fill="#FFFF00"/>
  <circle cx="530" cy="550" r="3" fill="#000000"/>
  <circle cx="540" cy="550" r="3" fill="#000000"/>
  
  <!-- Sun -->
  <circle cx="100" cy="100" r="40" fill="#FFD700"/>
  <line x1="100" y1="40" x2="100" y2="20" stroke="#FFD700" stroke-width="3"/>
  <line x1="100" y1="160" x2="100" y2="180" stroke="#FFD700" stroke-width="3"/>
  <line x1="40" y1="100" x2="20" y2="100" stroke="#FFD700" stroke-width="3"/>
  <line x1="160" y1="100" x2="180" y2="100" stroke="#FFD700" stroke-width="3"/>
  <line x1="60" y1="60" x2="45" y2="45" stroke="#FFD700" stroke-width="3"/>
  <line x1="140" y1="140" x2="155" y2="155" stroke="#FFD700" stroke-width="3"/>
  <line x1="60" y1="140" x2="45" y2="155" stroke="#FFD700" stroke-width="3"/>
  <line x1="140" y1="60" x2="155" y2="45" stroke="#FFD700" stroke-width="3"/>
  
  <!-- Office Complex text -->
  <text x="300" y="50" font-family="Arial" font-size="24" font-weight="bold" fill="#000000">OFFICE COMPLEX</text>
</svg>
