<?xml version="1.0" encoding="UTF-8" standalone="no"?>
<svg width="800" height="600" viewBox="0 0 800 600" fill="none" xmlns="http://www.w3.org/2000/svg">
  <!-- Sky background -->
  <rect width="800" height="600" fill="#87CEEB"/>
  
  <!-- Ground -->
  <rect y="500" width="800" height="100" fill="#8B4513"/>
  
  <!-- Apartment Building -->
  <rect x="200" y="100" width="400" height="400" fill="#F5DEB3"/>
  
  <!-- Windows - 5 floors, 5 apartments per floor -->
  <!-- Floor 1 -->
  <rect x="230" y="420" width="40" height="50" fill="#ADD8E6"/>
  <rect x="290" y="420" width="40" height="50" fill="#ADD8E6"/>
  <rect x="350" y="420" width="40" height="50" fill="#ADD8E6"/>
  <rect x="410" y="420" width="40" height="50" fill="#ADD8E6"/>
  <rect x="470" y="420" width="40" height="50" fill="#ADD8E6"/>
  
  <!-- Floor 2 -->
  <rect x="230" y="350" width="40" height="50" fill="#ADD8E6"/>
  <rect x="290" y="350" width="40" height="50" fill="#ADD8E6"/>
  <rect x="350" y="350" width="40" height="50" fill="#ADD8E6"/>
  <rect x="410" y="350" width="40" height="50" fill="#ADD8E6"/>
  <rect x="470" y="350" width="40" height="50" fill="#ADD8E6"/>
  
  <!-- Floor 3 -->
  <rect x="230" y="280" width="40" height="50" fill="#ADD8E6"/>
  <rect x="290" y="280" width="40" height="50" fill="#ADD8E6"/>
  <rect x="350" y="280" width="40" height="50" fill="#ADD8E6"/>
  <rect x="410" y="280" width="40" height="50" fill="#ADD8E6"/>
  <rect x="470" y="280" width="40" height="50" fill="#ADD8E6"/>
  
  <!-- Floor 4 -->
  <rect x="230" y="210" width="40" height="50" fill="#ADD8E6"/>
  <rect x="290" y="210" width="40" height="50" fill="#ADD8E6"/>
  <rect x="350" y="210" width="40" height="50" fill="#ADD8E6"/>
  <rect x="410" y="210" width="40" height="50" fill="#ADD8E6"/>
  <rect x="470" y="210" width="40" height="50" fill="#ADD8E6"/>
  
  <!-- Floor 5 -->
  <rect x="230" y="140" width="40" height="50" fill="#ADD8E6"/>
  <rect x="290" y="140" width="40" height="50" fill="#ADD8E6"/>
  <rect x="350" y="140" width="40" height="50" fill="#ADD8E6"/>
  <rect x="410" y="140" width="40" height="50" fill="#ADD8E6"/>
  <rect x="470" y="140" width="40" height="50" fill="#ADD8E6"/>
  
  <!-- Window Details -->
  <!-- Adding curtains to some windows -->
  <rect x="230" y="420" width="40" height="10" fill="#FFC0CB"/>
  <rect x="350" y="350" width="40" height="10" fill="#FFC0CB"/>
  <rect x="410" y="280" width="40" height="10" fill="#FFC0CB"/>
  <rect x="290" y="210" width="40" height="10" fill="#FFC0CB"/>
  <rect x="470" y="140" width="40" height="10" fill="#FFC0CB"/>
  
  <!-- Adding lights to some windows -->
  <rect x="290" y="420" width="40" height="50" fill="#FFFF00" opacity="0.3"/>
  <rect x="410" y="350" width="40" height="50" fill="#FFFF00" opacity="0.3"/>
  <rect x="230" y="280" width="40" height="50" fill="#FFFF00" opacity="0.3"/>
  <rect x="470" y="210" width="40" height="50" fill="#FFFF00" opacity="0.3"/>
  <rect x="350" y="140" width="40" height="50" fill="#FFFF00" opacity="0.3"/>
  
  <!-- Main Entrance -->
  <rect x="350" y="470" width="100" height="30" fill="#8B4513"/>
  <rect x="380" y="470" width="40" height="30" fill="#A0522D"/>
  
  <!-- Roof -->
  <rect x="180" y="100" width="440" height="20" fill="#A52A2A"/>
  
  <!-- Balconies -->
  <rect x="220" y="400" width="60" height="10" fill="#A9A9A9"/>
  <line x1="230" y1="390" x2="230" y2="400" stroke="#A9A9A9" stroke-width="2"/>
  <line x1="240" y1="390" x2="240" y2="400" stroke="#A9A9A9" stroke-width="2"/>
  <line x1="250" y1="390" x2="250" y2="400" stroke="#A9A9A9" stroke-width="2"/>
  <line x1="260" y1="390" x2="260" y2="400" stroke="#A9A9A9" stroke-width="2"/>
  <line x1="270" y1="390" x2="270" y2="400" stroke="#A9A9A9" stroke-width="2"/>
  
  <rect x="340" y="330" width="60" height="10" fill="#A9A9A9"/>
  <line x1="350" y1="320" x2="350" y2="330" stroke="#A9A9A9" stroke-width="2"/>
  <line x1="360" y1="320" x2="360" y2="330" stroke="#A9A9A9" stroke-width="2"/>
  <line x1="370" y1="320" x2="370" y2="330" stroke="#A9A9A9" stroke-width="2"/>
  <line x1="380" y1="320" x2="380" y2="330" stroke="#A9A9A9" stroke-width="2"/>
  <line x1="390" y1="320" x2="390" y2="330" stroke="#A9A9A9" stroke-width="2"/>
  
  <rect x="460" y="260" width="60" height="10" fill="#A9A9A9"/>
  <line x1="470" y1="250" x2="470" y2="260" stroke="#A9A9A9" stroke-width="2"/>
  <line x1="480" y1="250" x2="480" y2="260" stroke="#A9A9A9" stroke-width="2"/>
  <line x1="490" y1="250" x2="490" y2="260" stroke="#A9A9A9" stroke-width="2"/>
  <line x1="500" y1="250" x2="500" y2="260" stroke="#A9A9A9" stroke-width="2"/>
  <line x1="510" y1="250" x2="510" y2="260" stroke="#A9A9A9" stroke-width="2"/>
  
  <rect x="280" y="190" width="60" height="10" fill="#A9A9A9"/>
  <line x1="290" y1="180" x2="290" y2="190" stroke="#A9A9A9" stroke-width="2"/>
  <line x1="300" y1="180" x2="300" y2="190" stroke="#A9A9A9" stroke-width="2"/>
  <line x1="310" y1="180" x2="310" y2="190" stroke="#A9A9A9" stroke-width="2"/>
  <line x1="320" y1="180" x2="320" y2="190" stroke="#A9A9A9" stroke-width="2"/>
  <line x1="330" y1="180" x2="330" y2="190" stroke="#A9A9A9" stroke-width="2"/>
  
  <rect x="400" y="120" width="60" height="10" fill="#A9A9A9"/>
  <line x1="410" y1="110" x2="410" y2="120" stroke="#A9A9A9" stroke-width="2"/>
  <line x1="420" y1="110" x2="420" y2="120" stroke="#A9A9A9" stroke-width="2"/>
  <line x1="430" y1="110" x2="430" y2="120" stroke="#A9A9A9" stroke-width="2"/>
  <line x1="440" y1="110" x2="440" y2="120" stroke="#A9A9A9" stroke-width="2"/>
  <line x1="450" y1="110" x2="450" y2="120" stroke="#A9A9A9" stroke-width="2"/>
  
  <!-- Sidewalk -->
  <rect x="150" y="500" width="500" height="20" fill="#C0C0C0"/>
  
  <!-- Trees -->
  <rect x="150" y="450" width="10" height="50" fill="#8B4513"/>
  <circle cx="155" cy="430" r="20" fill="#228B22"/>
  
  <rect x="640" y="450" width="10" height="50" fill="#8B4513"/>
  <circle cx="645" cy="430" r="20" fill="#228B22"/>
  
  <!-- Parking Area -->
  <rect x="50" y="520" width="100" height="60" fill="#696969"/>
  <rect x="60" y="530" width="20" height="40" fill="#FFFFFF" stroke="#000000" stroke-width="1"/>
  <rect x="90" y="530" width="20" height="40" fill="#FFFFFF" stroke="#000000" stroke-width="1"/>
  <rect x="120" y="530" width="20" height="40" fill="#FFFFFF" stroke="#000000" stroke-width="1"/>
  
  <!-- Cars -->
  <rect x="65" y="540" width="10" height="20" fill="#FF0000"/>
  <circle cx="67" cy="560" r="3" fill="#000000"/>
  <circle cx="73" cy="560" r="3" fill="#000000"/>
  
  <rect x="125" y="540" width="10" height="20" fill="#0000FF"/>
  <circle cx="127" cy="560" r="3" fill="#000000"/>
  <circle cx="133" cy="560" r="3" fill="#000000"/>
  
  <!-- Sun -->
  <circle cx="700" cy="100" r="40" fill="#FFD700"/>
  <line x1="700" y1="40" x2="700" y2="20" stroke="#FFD700" stroke-width="3"/>
  <line x1="700" y1="160" x2="700" y2="180" stroke="#FFD700" stroke-width="3"/>
  <line x1="640" y1="100" x2="620" y2="100" stroke="#FFD700" stroke-width="3"/>
  <line x1="760" y1="100" x2="780" y2="100" stroke="#FFD700" stroke-width="3"/>
  <line x1="660" y1="60" x2="645" y2="45" stroke="#FFD700" stroke-width="3"/>
  <line x1="740" y1="140" x2="755" y2="155" stroke="#FFD700" stroke-width="3"/>
  <line x1="660" y1="140" x2="645" y2="155" stroke="#FFD700" stroke-width="3"/>
  <line x1="740" y1="60" x2="755" y2="45" stroke="#FFD700" stroke-width="3"/>
  
  <!-- Apartment Building text -->
  <text x="280" y="50" font-family="Arial" font-size="24" font-weight="bold" fill="#000000">APARTMENT BUILDING</text>
</svg>
