<?xml version="1.0" encoding="UTF-8" standalone="no"?>
<svg width="800" height="600" viewBox="0 0 800 600" fill="none" xmlns="http://www.w3.org/2000/svg">
  <!-- Sky background -->
  <rect width="800" height="600" fill="#87CEEB"/>
  
  <!-- Ground -->
  <rect y="400" width="800" height="200" fill="#7CFC00"/>
  
  <!-- Eco-Friendly Home -->
  <rect x="250" y="250" width="300" height="150" fill="#8FBC8F"/>
  
  <!-- Roof with Solar Panels -->
  <polygon points="250,250 400,150 550,250" fill="#2E8B57"/>
  
  <!-- Solar Panels -->
  <rect x="270" y="170" width="40" height="60" fill="#4682B4"/>
  <rect x="320" y="170" width="40" height="60" fill="#4682B4"/>
  <rect x="370" y="170" width="40" height="60" fill="#4682B4"/>
  <rect x="420" y="170" width="40" height="60" fill="#4682B4"/>
  <rect x="470" y="170" width="40" height="60" fill="#4682B4"/>
  
  <!-- Solar Panel Details -->
  <line x1="290" y1="170" x2="290" y2="230" stroke="#000000" stroke-width="1"/>
  <line x1="270" y1="190" x2="310" y2="190" stroke="#000000" stroke-width="1"/>
  <line x1="270" y1="210" x2="310" y2="210" stroke="#000000" stroke-width="1"/>
  
  <line x1="340" y1="170" x2="340" y2="230" stroke="#000000" stroke-width="1"/>
  <line x1="320" y1="190" x2="360" y2="190" stroke="#000000" stroke-width="1"/>
  <line x1="320" y1="210" x2="360" y2="210" stroke="#000000" stroke-width="1"/>
  
  <line x1="390" y1="170" x2="390" y2="230" stroke="#000000" stroke-width="1"/>
  <line x1="370" y1="190" x2="410" y2="190" stroke="#000000" stroke-width="1"/>
  <line x1="370" y1="210" x2="410" y2="210" stroke="#000000" stroke-width="1"/>
  
  <line x1="440" y1="170" x2="440" y2="230" stroke="#000000" stroke-width="1"/>
  <line x1="420" y1="190" x2="460" y2="190" stroke="#000000" stroke-width="1"/>
  <line x1="420" y1="210" x2="460" y2="210" stroke="#000000" stroke-width="1"/>
  
  <line x1="490" y1="170" x2="490" y2="230" stroke="#000000" stroke-width="1"/>
  <line x1="470" y1="190" x2="510" y2="190" stroke="#000000" stroke-width="1"/>
  <line x1="470" y1="210" x2="510" y2="210" stroke="#000000" stroke-width="1"/>
  
  <!-- Windows -->
  <rect x="280" y="280" width="50" height="50" fill="#ADD8E6"/>
  <line x1="305" y1="280" x2="305" y2="330" stroke="#FFFFFF" stroke-width="2"/>
  <line x1="280" y1="305" x2="330" y2="305" stroke="#FFFFFF" stroke-width="2"/>
  
  <rect x="470" y="280" width="50" height="50" fill="#ADD8E6"/>
  <line x1="495" y1="280" x2="495" y2="330" stroke="#FFFFFF" stroke-width="2"/>
  <line x1="470" y1="305" x2="520" y2="305" stroke="#FFFFFF" stroke-width="2"/>
  
  <!-- Door -->
  <rect x="375" y="320" width="50" height="80" fill="#8B4513"/>
  <circle cx="390" cy="360" r="5" fill="#FFD700"/>
  
  <!-- Wind Turbine -->
  <rect x="650" y="250" width="10" height="150" fill="#A9A9A9"/>
  <circle cx="655" cy="250" r="5" fill="#A9A9A9"/>
  
  <!-- Turbine Blades -->
  <line x1="655" y1="250" x2="605" y2="220" stroke="#A9A9A9" stroke-width="5"/>
  <line x1="655" y1="250" x2="705" y2="220" stroke="#A9A9A9" stroke-width="5"/>
  <line x1="655" y1="250" x2="655" y2="200" stroke="#A9A9A9" stroke-width="5"/>
  
  <!-- Rain Collection System -->
  <rect x="550" y="250" width="30" height="150" fill="#4682B4"/>
  <rect x="540" y="240" width="50" height="10" fill="#4682B4"/>
  
  <!-- Garden -->
  <rect x="150" y="350" width="80" height="50" fill="#8B4513"/>
  
  <!-- Plants -->
  <rect x="160" y="330" width="5" height="20" fill="#8B4513"/>
  <circle cx="162" cy="320" r="10" fill="#228B22"/>
  
  <rect x="180" y="330" width="5" height="20" fill="#8B4513"/>
  <circle cx="182" cy="320" r="10" fill="#228B22"/>
  
  <rect x="200" y="330" width="5" height="20" fill="#8B4513"/>
  <circle cx="202" cy="320" r="10" fill="#228B22"/>
  
  <rect x="220" y="330" width="5" height="20" fill="#8B4513"/>
  <circle cx="222" cy="320" r="10" fill="#228B22"/>
  
  <!-- Compost Bin -->
  <rect x="150" y="420" width="40" height="40" fill="#8B4513"/>
  <rect x="155" y="425" width="30" height="30" fill="#A0522D"/>
  
  <!-- Bicycle -->
  <circle cx="600" cy="450" r="15" fill="#000000" stroke="#C0C0C0" stroke-width="2"/>
  <circle cx="650" cy="450" r="15" fill="#000000" stroke="#C0C0C0" stroke-width="2"/>
  <line x1="600" y1="450" x2="650" y2="450" stroke="#C0C0C0" stroke-width="3"/>
  <line x1="625" y1="450" x2="625" y2="430" stroke="#C0C0C0" stroke-width="3"/>
  <line x1="625" y1="430" x2="640" y2="420" stroke="#C0C0C0" stroke-width="3"/>
  <line x1="625" y1="430" x2="610" y2="420" stroke="#C0C0C0" stroke-width="3"/>
  
  <!-- Trees -->
  <rect x="100" y="350" width="10" height="50" fill="#8B4513"/>
  <circle cx="105" cy="330" r="20" fill="#228B22"/>
  
  <rect x="700" y="350" width="10" height="50" fill="#8B4513"/>
  <circle cx="705" cy="330" r="20" fill="#228B22"/>
  
  <!-- Sun -->
  <circle cx="100" cy="100" r="40" fill="#FFD700"/>
  <line x1="100" y1="40" x2="100" y2="20" stroke="#FFD700" stroke-width="3"/>
  <line x1="100" y1="160" x2="100" y2="180" stroke="#FFD700" stroke-width="3"/>
  <line x1="40" y1="100" x2="20" y2="100" stroke="#FFD700" stroke-width="3"/>
  <line x1="160" y1="100" x2="180" y2="100" stroke="#FFD700" stroke-width="3"/>
  <line x1="60" y1="60" x2="45" y2="45" stroke="#FFD700" stroke-width="3"/>
  <line x1="140" y1="140" x2="155" y2="155" stroke="#FFD700" stroke-width="3"/>
  <line x1="60" y1="140" x2="45" y2="155" stroke="#FFD700" stroke-width="3"/>
  <line x1="140" y1="60" x2="155" y2="45" stroke="#FFD700" stroke-width="3"/>
  
  <!-- Eco-Friendly Home text -->
  <text x="300" y="50" font-family="Arial" font-size="24" font-weight="bold" fill="#000000">ECO-FRIENDLY HOME</text>
</svg>
