<?xml version="1.0" encoding="UTF-8" standalone="no"?>
<svg width="800" height="800" viewBox="0 0 800 800" fill="none" xmlns="http://www.w3.org/2000/svg">
  <!-- Background -->
  <rect width="800" height="800" fill="#F5F5F5"/>
  
  <!-- Construction site background -->
  <rect y="400" width="800" height="400" fill="#D3D3D3"/>
  
  <!-- Building outline -->
  <rect x="100" y="200" width="600" height="400" stroke="#696969" stroke-width="5" fill="none"/>
  <line x1="100" y1="200" x2="400" y2="50" stroke="#696969" stroke-width="5"/>
  <line x1="700" y1="200" x2="400" y2="50" stroke="#696969" stroke-width="5"/>
  
  <!-- Team members -->
  <!-- Person 1 (Center - Leader) -->
  <circle cx="400" cy="500" r="40" fill="#FFD700"/>
  <rect x="380" y="540" width="40" height="80" fill="#000080"/>
  <rect x="380" y="620" width="15" height="60" fill="#000080"/>
  <rect x="405" y="620" width="15" height="60" fill="#000080"/>
  <rect x="350" y="550" width="30" height="60" fill="#000080"/>
  <rect x="420" y="550" width="30" height="60" fill="#000080"/>
  <circle cx="385" cy="490" r="5" fill="#000000"/>
  <circle cx="415" cy="490" r="5" fill="#000000"/>
  <path d="M385 510 Q400 520 415 510" stroke="#000000" stroke-width="3" fill="none"/>
  <rect x="380" y="470" width="40" height="10" fill="#FFD700"/>
  
  <!-- Person 2 (Left) -->
  <circle cx="250" cy="520" r="35" fill="#FFA07A"/>
  <rect x="235" y="555" width="30" height="70" fill="#008000"/>
  <rect x="235" y="625" width="12" height="55" fill="#008000"/>
  <rect x="253" y="625" width="12" height="55" fill="#008000"/>
  <rect x="210" y="565" width="25" height="50" fill="#008000"/>
  <rect x="265" y="565" width="25" height="50" fill="#008000"/>
  <circle cx="240" cy="510" r="4" fill="#000000"/>
  <circle cx="260" cy="510" r="4" fill="#000000"/>
  <path d="M240 530 Q250 538 260 530" stroke="#000000" stroke-width="2" fill="none"/>
  <rect x="235" y="495" width="30" height="8" fill="#FFA07A"/>
  
  <!-- Person 3 (Right) -->
  <circle cx="550" cy="520" r="35" fill="#D2B48C"/>
  <rect x="535" y="555" width="30" height="70" fill="#800000"/>
  <rect x="535" y="625" width="12" height="55" fill="#800000"/>
  <rect x="553" y="625" width="12" height="55" fill="#800000"/>
  <rect x="510" y="565" width="25" height="50" fill="#800000"/>
  <rect x="565" y="565" width="25" height="50" fill="#800000"/>
  <circle cx="540" cy="510" r="4" fill="#000000"/>
  <circle cx="560" cy="510" r="4" fill="#000000"/>
  <path d="M540 530 Q550 538 560 530" stroke="#000000" stroke-width="2" fill="none"/>
  <rect x="535" y="495" width="30" height="8" fill="#D2B48C"/>
  
  <!-- Person 4 (Far Left) -->
  <circle cx="120" cy="540" r="30" fill="#F0E68C"/>
  <rect x="110" y="570" width="20" height="60" fill="#4682B4"/>
  <rect x="110" y="630" width="8" height="50" fill="#4682B4"/>
  <rect x="122" y="630" width="8" height="50" fill="#4682B4"/>
  <rect x="90" y="580" width="20" height="40" fill="#4682B4"/>
  <rect x="130" y="580" width="20" height="40" fill="#4682B4"/>
  <circle cx="110" cy="535" r="3" fill="#000000"/>
  <circle cx="130" cy="535" r="3" fill="#000000"/>
  <path d="M110 550 Q120 555 130 550" stroke="#000000" stroke-width="2" fill="none"/>
  
  <!-- Person 5 (Far Right) -->
  <circle cx="680" cy="540" r="30" fill="#BC8F8F"/>
  <rect x="670" y="570" width="20" height="60" fill="#556B2F"/>
  <rect x="670" y="630" width="8" height="50" fill="#556B2F"/>
  <rect x="682" y="630" width="8" height="50" fill="#556B2F"/>
  <rect x="650" y="580" width="20" height="40" fill="#556B2F"/>
  <rect x="690" y="580" width="20" height="40" fill="#556B2F"/>
  <circle cx="670" cy="535" r="3" fill="#000000"/>
  <circle cx="690" cy="535" r="3" fill="#000000"/>
  <path d="M670 550 Q680 555 690 550" stroke="#000000" stroke-width="2" fill="none"/>
  
  <!-- Hard hats -->
  <path d="M400 460 Q400 440 440 450 Q450 470 400 460" fill="#FFD700"/>
  <path d="M250 485 Q250 465 280 475 Q290 490 250 485" fill="#FFD700"/>
  <path d="M550 485 Q550 465 580 475 Q590 490 550 485" fill="#FFD700"/>
  <path d="M120 505 Q120 490 145 495 Q155 510 120 505" fill="#FFD700"/>
  <path d="M680 505 Q680 490 705 495 Q715 510 680 505" fill="#FFD700"/>
  
  <!-- Construction tools -->
  <rect x="50" y="650" width="100" height="30" fill="#A0522D"/>
  <rect x="650" y="650" width="100" height="30" fill="#A0522D"/>
  <circle cx="200" cy="670" r="20" fill="#C0C0C0"/>
  <circle cx="600" cy="670" r="20" fill="#C0C0C0"/>
  <rect x="350" y="700" width="100" height="50" fill="#D3D3D3"/>
  
  <!-- Blueprint -->
  <rect x="300" y="350" width="200" height="100" fill="#ADD8E6"/>
  <line x1="320" y1="370" x2="480" y2="370" stroke="#000080" stroke-width="2"/>
  <line x1="320" y1="390" x2="480" y2="390" stroke="#000080" stroke-width="2"/>
  <line x1="320" y1="410" x2="480" y2="410" stroke="#000080" stroke-width="2"/>
  <line x1="320" y1="430" x2="480" y2="430" stroke="#000080" stroke-width="2"/>
  <line x1="340" y1="350" x2="340" y2="450" stroke="#000080" stroke-width="2"/>
  <line x1="380" y1="350" x2="380" y2="450" stroke="#000080" stroke-width="2"/>
  <line x1="420" y1="350" x2="420" y2="450" stroke="#000080" stroke-width="2"/>
  <line x1="460" y1="350" x2="460" y2="450" stroke="#000080" stroke-width="2"/>
</svg>
